<?xml version="1.0" encoding="UTF-8"?>
<svg width="38px" height="38px" viewBox="0 0 38 38" version="1.1" xmlns="http://www.w3.org/2000/svg" xmlns:xlink="http://www.w3.org/1999/xlink">
    <!-- Generator: Sketch 48 (47235) - http://www.bohemiancoding.com/sketch -->
    <title>Group</title>
    <desc>Created with Sketch.</desc>
    <defs></defs>
    <g id="Page-1" stroke="none" stroke-width="1" fill="none" fill-rule="evenodd">
        <g id="Group" fill-rule="nonzero">
            <path d="M18.833,0 C8.431,0 0,8.432 0,18.833 C0,29.232 8.431,37.667 18.833,37.667 C29.234,37.667 37.664,29.232 37.664,18.833 C37.664,8.432 29.234,0 18.833,0 Z" id="Shape" fill="#FF8300"></path>
            <path d="M18.6741503,5.401 C15.6921503,5.401 12.7561503,6.499 10.4121503,8.493 C5.23715028,12.889 4.50915028,20.408 8.78715028,25.25 C10.2701503,26.922 11.8601503,28.322 13.0711503,28.882 L20.2651503,23 L13.6731503,23 L13.6291503,22.871 C10.9621503,19.793 11.1661503,15.23 14.0811503,12.752 C15.4151503,11.618 17.0791503,10.974 18.7631503,10.974 C20.7591503,10.974 22.6691503,11.83 24.0031503,13.341 C25.2251503,14.725 25.8191503,16.488 25.6711503,18.322 C25.5241503,20.155 24.9491503,21.713 23.3721503,23.045 C23.3271503,23.084 14.7151503,30.242 14.7151503,30.242 L18.7971503,34.392 L27.0501503,27.315 C31.9181503,22.837 32.0291503,17.884 30.8341503,14.184 C29.5351503,10.161 25.5491503,5.401 18.6741503,5.401 Z" id="Shape" fill="#FFFFFF"></path>
        </g>
    </g>
</svg>